{"title":"Albino Farm-AC3-5,1-DVDRip[Eng]2009","uid":5001094,"size":1347042037,"categoryP":"video","categoryS":"movies","magnet":"?xt=urn:btih:c2a7b73b98f4d582906b35a7192242b777cc6ad4&amp;dn=Albino+Farm-AC3-5%2C1-DVDRip%5BEng%5D2009&amp;tr=udp%3A%2F%2Ftracker.openbittorrent.com%3A80&amp;tr=udp%3A%2F%2Fopen.demonii.com%3A1337&amp;tr=udp%3A%2F%2Ftracker.coppersurfer.tk%3A6969&amp;tr=udp%3A%2F%2Fexodus.desync.com%3A6969","seeders":0,"leechers":1,"uploader":"FatFreddy31","files":3,"time":1247519166,"description":" &lt;a href=&quot;http://www.imdb.com/title/tt1050001/&quot; rel=&quot;nofollow&quot; target=&quot;_NEW&quot;&gt;http://www.imdb.com/title/tt1050001/&lt;/a&gt;\n &lt;a href=&quot;\nhttp://www.albinofarmthemovie.com/&quot; rel=&quot;nofollow&quot; target=&quot;_NEW&quot;&gt;\nhttp://www.albinofarmthemovie.com/&lt;/a&gt;\n\nDirectors:Joe Anderson/Sean McEwen\n\nCast:Tammin Sursok/Chris Jericho/Richard Christy/Duane Whitaker, and others.\n\nHorror\n\nPlot:\nFour animated college friends doing research for a school project find themselves a part of the legend they're seeking to unravel when car troubles render them lost in uncharted Ozark Territory where a secret and sadistic society of the deformed awaits them. Through their enduring quest for survival, the eerie curtain covering a real-life American legend is lifted, and a past almost as disturbing as its present is uncovered in &quot;Albino Farm.&quot; \n\nInfo:\n\nGeneral\nComplete name                    : Albino Farm-AC3-5,1-DVDRip[Eng]2009.avi\nFormat                           : AVI\nFormat/Info                      : Audio Video Interleave\nFile size                        : 1.25 GiB\nDuration                         : 1h 25mn\nOverall bit rate                 : 2 108 Kbps\nWriting application              : VirtualDubMod 1.5.4.1 (build 2178/release)\nWriting library                  : VirtualDubMod build 2178/release\n\nVideo\nFormat                           : MPEG-4 Visual\nFormat profile                   : Simple@L3\nFormat settings, BVOP            : No\nFormat settings, QPel            : No\nFormat settings, GMC             : No warppoints\nFormat settings, Matrix          : Default\nCodec ID                         : XVID\nCodec ID/Hint                    : XviD\nDuration                         : 1h 25mn\nBit rate                         : 1 653 Kbps\nWidth                            : 720 pixels\nHeight                           : 400 pixels\nDisplay aspect ratio             : 16/9\nFrame rate                       : 25.000 fps\nResolution                       : 24 bits\nColorimetry                      : 4:2:0\nScan type                        : Progressive\nBits/(Pixel*Frame)               : 0.230\nStream size                      : 1 007 MiB (78%)\nWriting library                  : XviD 50\n\nAudio\nFormat                           : AC-3\nFormat/Info                      : Audio Coding 3\nCodec ID                         : 2000\nDuration                         : 1h 25mn\nBit rate mode                    : Constant\nBit rate                         : 448 Kbps\nChannel(s)                       : 6 channels\nChannel positions                : Front: L C R, Surround: L R, LFE\nSampling rate                    : 48.0 KHz\nStream size                      : 273 MiB (21%)\nAlignment                        : Split accross interleaves\nInterleave, duration             : 80 ms (2.00 video frames)\nInterleave, preload duration     : 500 ms\nLanguage                         : English\n\nEnjoy...","torrent":{"xt":"urn:btih:c2a7b73b98f4d582906b35a7192242b777cc6ad4","amp;dn":"Albino+Farm-AC3-5%2C1-DVDRip%5BEng%5D2009","amp;tr":["udp%3A%2F%2Ftracker.openbittorrent.com%3A80","udp%3A%2F%2Fopen.demonii.com%3A1337","udp%3A%2F%2Ftracker.coppersurfer.tk%3A6969","udp%3A%2F%2Fexodus.desync.com%3A6969"],"infoHash":"c2a7b73b98f4d582906b35a7192242b777cc6ad4","infoHashBuffer":{"type":"Buffer","data":[194,167,183,59,152,244,213,130,144,107,53,167,25,34,66,183,119,204,106,212]},"announce":[],"urlList":[]}}